<svg width="51" height="63" viewBox="0 0 51 63" fill="none" xmlns="http://www.w3.org/2000/svg">
<path fill-rule="evenodd" clip-rule="evenodd" d="M50.6237 10.3051C49 1.98445 44.2164 -0.391821 38.4665 0.0506781C34.7469 0.336935 31.386 2.48943 29.0498 5.86763C28.9575 6.00109 28.8505 6.12405 28.7341 6.23709C28.6306 6.33758 28.5299 6.44129 28.432 6.54801L1.07993 36.378C0.403432 37.1158 0 38.0689 0 39.0699C0 40.3146 0.570121 41.4808 1.49442 42.3144L22.202 60.9897C22.9709 61.6831 23.8359 62.2469 24.7632 62.6682C26.1259 63.2872 27.2598 61.8587 26.7096 60.4668L14.6562 29.9751C14.5877 29.8018 14.8069 29.6598 14.937 29.7933V29.7933C15.0625 29.9221 15.3053 29.7856 15.2805 29.6075C15.0603 28.0272 15.7345 26.3668 17.2327 25.2749L35.9231 11.6536C37.6749 10.3769 39.9221 12.4095 38.8271 14.2802L24.9601 37.9709C24.5054 38.7477 24.6256 39.7326 25.254 40.3772L29.9625 45.2076L46.1788 59.9915C46.9233 60.6702 48.0753 60.7015 48.7165 59.9245C50.143 58.1959 51 55.9798 51 53.5636V23.4622V20.4551V13.04L50.6237 10.3051Z" fill="url(#paint0_linear_5_71)"/>
<defs>
<linearGradient id="paint0_linear_5_71" x1="25.5" y1="0" x2="25.5" y2="68.7112" gradientUnits="userSpaceOnUse">
<stop stop-color="#21D1F5" stop-opacity="0.93"/>
<stop offset="1" stop-color="#3BD1C8" stop-opacity="0.35"/>
</linearGradient>
</defs>
</svg>
